<svg width="40" height="40" viewBox="0 0 40 40" fill="none" xmlns="http://www.w3.org/2000/svg">
<rect width="40" height="40" rx="10" fill="url(#paint0_linear_90_1164)"/>
<path d="M34.5 13.7731V9.65869C34.5 8.57711 34.0703 7.53982 33.3055 6.77502C32.5407 6.01022 31.5035 5.58057 30.4219 5.58057H15.9219C14.8403 5.58057 13.803 6.01022 13.0382 6.77502C12.2734 7.53982 11.8438 8.57711 11.8438 9.65869V30.5024C11.8438 31.1033 11.6051 31.6796 11.1802 32.1045C10.7553 32.5294 10.179 32.7681 9.57812 32.7681C8.97724 32.7681 8.40097 32.5294 7.97609 32.1045C7.5512 31.6796 7.3125 31.1033 7.3125 30.5024V27.2581H10.2034V25.4456H5.5V30.4299C5.5 31.5115 5.92966 32.5488 6.69446 33.3136C7.45925 34.0784 8.49654 34.5081 9.57812 34.5081H26.8694C27.951 34.5081 28.9882 34.0784 29.753 33.3136C30.5178 32.5488 30.9475 31.5115 30.9475 30.4299V15.5946H29.135V30.4662C29.135 31.0671 28.8963 31.6433 28.4714 32.0682C28.0465 32.4931 27.4703 32.7318 26.8694 32.7318H12.9675C13.4176 32.0621 13.6574 31.2731 13.6562 30.4662V9.62244C13.6562 9.02156 13.8949 8.44529 14.3198 8.0204C14.7447 7.59552 15.321 7.35682 15.9219 7.35682C16.5228 7.35682 17.099 7.59552 17.5239 8.0204C17.9488 8.44529 18.1875 9.02156 18.1875 9.62244V13.7368L34.5 13.7731ZM30.4219 7.42932C31.0165 7.42924 31.5874 7.66296 32.0112 8.08004C32.4351 8.49711 32.678 9.06411 32.6875 9.65869V11.9606H20V9.65869C19.9996 8.85198 19.7599 8.06353 19.3112 7.39307L30.4219 7.42932Z" fill="white"/>
<defs>
<linearGradient id="paint0_linear_90_1164" x1="40" y1="20.0001" x2="-2.71983e-07" y2="20.0001" gradientUnits="userSpaceOnUse">
<stop stop-color="#A4B5C9"/>
<stop offset="1" stop-color="#47638B"/>
</linearGradient>
</defs>
</svg>
