<svg width="40" height="39" viewBox="0 0 40 39" fill="none" xmlns="http://www.w3.org/2000/svg">
<g clip-path="url(#clip0_91_1487)">
<g clip-path="url(#clip1_91_1487)">
<path d="M20 39.9867C16.0896 39.9873 12.265 38.8394 9.00127 36.6855L1.31627 39.1405L3.80752 31.7155C1.32713 28.3131 -0.00636467 24.2097 2.28407e-05 19.9992C2.28407e-05 8.97672 8.96627 0.0117188 19.9875 0.0117188C31.0088 0.0117188 39.975 8.97672 39.975 19.9992C39.975 31.0217 31.0125 39.9867 19.9875 39.9867H20Z" fill="#FEFEFE"/>
<path d="M20.0006 1.50391C9.80081 1.50391 1.50439 9.80063 1.50439 20.0001C1.50439 24.0449 2.80928 27.7966 5.02747 30.8415L2.72182 37.7143L9.83028 35.4418C12.7549 37.3773 16.2458 38.4972 20.0082 38.4972C30.208 38.4972 38.5044 30.2001 38.5044 20.001C38.5044 9.80186 30.2077 1.50483 20.0082 1.50483H19.9975L20.0006 1.50391Z" fill="url(#paint0_linear_91_1487)"/>
<path d="M15.0918 11.8657C14.7751 11.0813 14.5164 11.0528 14.0202 11.0211L13.4544 11C12.8104 11 12.1347 11.19 11.7272 11.6049C11.231 12.1117 10 13.292 10 15.7139C10 18.1357 11.7662 20.4773 12.0059 20.8057C12.254 21.1224 15.4497 26.1751 20.4127 28.2296C24.2936 29.8375 25.4443 29.6886 26.328 29.4996C27.6181 29.222 29.2355 28.2687 29.643 27.1179C30.0505 25.9672 30.0505 24.9853 29.9302 24.7742C29.8098 24.563 29.4836 24.4575 28.9874 24.1988C28.4912 23.9401 26.0799 22.7598 25.6228 22.6004C25.1762 22.4315 24.7497 22.4917 24.4118 22.9678C23.9368 23.6329 23.4691 24.3086 23.0922 24.714C22.7945 25.0307 22.3078 25.0729 21.9013 24.904C21.3555 24.676 19.8268 24.1397 17.9423 22.4621C16.4833 21.1636 15.4909 19.5441 15.2027 19.0584C14.9144 18.5622 15.1731 18.274 15.4011 18.0059C15.6492 17.6976 15.8868 17.4801 16.1359 17.1929C16.3851 16.9058 16.5234 16.7559 16.6817 16.4191C16.8507 16.1024 16.7314 15.754 16.6121 15.5059C16.4928 15.2578 15.5004 12.8349 15.0939 11.853L15.0918 11.8657Z" fill="#FEFEFE"/>
</g>
</g>
<defs>
<linearGradient id="paint0_linear_91_1487" x1="-137.53" y1="-60.4667" x2="-137.53" y2="-59.1096" gradientUnits="userSpaceOnUse">
<stop stop-color="#6EBF61"/>
<stop offset="0.231" stop-color="#50A557"/>
<stop offset="0.522" stop-color="#2A904F"/>
<stop offset="0.812" stop-color="#50A557"/>
<stop offset="1" stop-color="#6EBF63"/>
</linearGradient>
<clipPath id="clip0_91_1487">
<rect width="39" height="39" fill="white" transform="translate(0.5)"/>
</clipPath>
<clipPath id="clip1_91_1487">
<rect width="40" height="40" fill="white"/>
</clipPath>
</defs>
</svg>
