<svg width="40" height="40" viewBox="0 0 40 40" fill="none" xmlns="http://www.w3.org/2000/svg">
<path d="M30 21.6634H21.6667V29.9967C21.6667 30.4388 21.4911 30.8627 21.1786 31.1753C20.866 31.4878 20.4421 31.6634 20 31.6634C19.558 31.6634 19.1341 31.4878 18.8215 31.1753C18.509 30.8627 18.3334 30.4388 18.3334 29.9967V21.6634H10C9.55801 21.6634 9.13409 21.4878 8.82153 21.1753C8.50897 20.8627 8.33337 20.4388 8.33337 19.9967C8.33337 19.5547 8.50897 19.1308 8.82153 18.8182C9.13409 18.5057 9.55801 18.3301 10 18.3301H18.3334V9.99674C18.3334 9.55472 18.509 9.13079 18.8215 8.81823C19.1341 8.50567 19.558 8.33008 20 8.33008C20.4421 8.33008 20.866 8.50567 21.1786 8.81823C21.4911 9.13079 21.6667 9.55472 21.6667 9.99674V18.3301H30C30.4421 18.3301 30.866 18.5057 31.1786 18.8182C31.4911 19.1308 31.6667 19.5547 31.6667 19.9967C31.6667 20.4388 31.4911 20.8627 31.1786 21.1753C30.866 21.4878 30.4421 21.6634 30 21.6634Z" fill="#454752"/>
</svg>
