<svg width="40" height="40" viewBox="0 0 40 40" fill="none" xmlns="http://www.w3.org/2000/svg">
<rect width="40" height="40" rx="10" fill="url(#paint0_linear_2001_171)"/>
<path d="M30.896 14.0004H28.4146L22.3266 20.0857C22.5363 20.6201 22.5556 21.2104 22.3812 21.7573C22.2069 22.3042 21.8495 22.7744 21.3692 23.0889C20.889 23.4033 20.3151 23.5428 19.744 23.4838C19.173 23.4249 18.6397 23.1711 18.2338 22.7652C17.8279 22.3593 17.5741 21.826 17.5152 21.255C17.4562 20.6839 17.5957 20.11 17.9101 19.6298C18.2245 19.1495 18.6948 18.7921 19.2417 18.6177C19.7886 18.4434 20.3789 18.4627 20.9133 18.6724L27 12.5857V10.1044C27.0001 9.77232 27.132 9.45391 27.3666 9.21902L29.6733 6.91235C29.716 6.86939 29.7696 6.83887 29.8283 6.82407C29.887 6.80927 29.9487 6.81075 30.0066 6.82835C30.1253 6.86302 30.2133 6.96169 30.2373 7.08302L30.8506 10.151L33.9173 10.7644C34.0373 10.7884 34.136 10.8764 34.1706 10.995C34.1881 11.0527 34.1897 11.114 34.1751 11.1724C34.1606 11.2309 34.1305 11.2843 34.088 11.327L31.78 13.6337C31.5454 13.868 31.2275 13.9999 30.896 14.0004Z" fill="white"/>
<path d="M7.5 21C7.5 24.3152 8.81696 27.4946 11.1612 29.8388C13.5054 32.183 16.6848 33.5 20 33.5C21.6415 33.5 23.267 33.1767 24.7835 32.5485C26.3001 31.9203 27.6781 30.9996 28.8388 29.8388C29.9996 28.6781 30.9203 27.3001 31.5485 25.7836C32.1767 24.267 32.5 22.6415 32.5 21C32.5 19.8027 32.332 18.6453 32.0187 17.5507C31.9564 17.2993 31.994 17.0336 32.1237 16.8095C32.2533 16.5853 32.4649 16.4202 32.7138 16.3489C32.9627 16.2775 33.2296 16.3055 33.4583 16.427C33.687 16.5484 33.8597 16.7538 33.94 17C34.3053 18.272 34.5 19.6133 34.5 21C34.5 29.008 28.008 35.5 20 35.5C11.992 35.5 5.5 29.008 5.5 21C5.5 12.992 11.992 6.50001 20 6.50001C21.3533 6.49867 22.6987 6.68667 24 7.05867C24.1269 7.09427 24.2455 7.15459 24.349 7.23617C24.4525 7.31775 24.5388 7.41898 24.6031 7.53404C24.6673 7.64911 24.7082 7.77573 24.7233 7.90664C24.7384 8.03755 24.7275 8.17016 24.6913 8.29685C24.655 8.42353 24.594 8.5418 24.5119 8.64485C24.4297 8.74789 24.328 8.83369 24.2126 8.8973C24.0972 8.96091 23.9703 9.00108 23.8394 9.0155C23.7084 9.02993 23.5758 9.01832 23.4493 8.98134C22.3276 8.66115 21.1666 8.49914 20 8.50001C16.6848 8.50001 13.5054 9.81697 11.1612 12.1612C8.81696 14.5054 7.5 17.6848 7.5 21Z" fill="white"/>
<path d="M13.4998 20.9997C13.5035 21.8828 13.6872 22.7559 14.0396 23.5656C14.392 24.3754 14.9058 25.1048 15.5495 25.7094C16.1932 26.3139 16.9534 26.781 17.7836 27.0819C18.6139 27.3829 19.4967 27.5115 20.3783 27.4599C21.2599 27.4083 22.1217 27.1775 22.9112 26.7817C23.7006 26.3859 24.4011 25.8333 24.9698 25.1577C25.5386 24.4822 25.9637 23.6978 26.2192 22.8524C26.4747 22.0071 26.5552 21.1186 26.4558 20.2411C26.4278 20.0633 26.4484 19.8814 26.5154 19.7144C26.5824 19.5474 26.6934 19.4017 26.8364 19.2926C26.9795 19.1836 27.1494 19.1153 27.3282 19.0949C27.507 19.0746 27.6879 19.1029 27.8518 19.1771C28.1865 19.3264 28.4118 19.6451 28.4412 20.0104C28.6482 21.764 28.3037 23.5386 27.4557 25.0875C26.6076 26.6364 25.2981 27.8826 23.7091 28.6529C22.1201 29.4232 20.3307 29.6793 18.5894 29.3856C16.8482 29.092 15.2416 28.2632 13.9932 27.0144C12.745 25.767 11.916 24.162 11.6211 22.4222C11.3261 20.6824 11.5799 18.8939 12.3472 17.3048C13.1145 15.7158 14.3572 14.4048 15.9031 13.5538C17.449 12.7029 19.2214 12.354 20.9745 12.5557C21.107 12.568 21.2358 12.6066 21.3532 12.6693C21.4706 12.732 21.5743 12.8175 21.6582 12.9208C21.7421 13.0241 21.8046 13.1431 21.8419 13.2709C21.8793 13.3986 21.8907 13.5326 21.8757 13.6648C21.8606 13.797 21.8192 13.9249 21.7541 14.041C21.6889 14.1571 21.6012 14.2589 21.4962 14.3407C21.3912 14.4224 21.2709 14.4823 21.1424 14.517C21.0138 14.5516 20.8797 14.5603 20.7478 14.5424C19.8372 14.4371 18.9146 14.5256 18.0406 14.802C17.1666 15.0785 16.3609 15.5366 15.6764 16.1464C14.992 16.7562 14.4442 17.5039 14.0691 18.3403C13.694 19.1767 13.5 20.083 13.4998 20.9997Z" fill="white"/>
<defs>
<linearGradient id="paint0_linear_2001_171" x1="40" y1="20.0001" x2="-2.71983e-07" y2="20.0001" gradientUnits="userSpaceOnUse">
<stop stop-color="#A4B5C9"/>
<stop offset="1" stop-color="#47638B"/>
</linearGradient>
</defs>
</svg>
