<svg width="20" height="20" viewBox="0 0 20 20" fill="none" xmlns="http://www.w3.org/2000/svg">
<g clip-path="url(#clip0_82_63)">
<path d="M6.6665 18.3333H13.3332C15.6898 18.3333 16.869 18.3333 17.6007 17.6017C18.3332 16.8683 18.3332 15.6908 18.3332 13.3333V12.5C18.3332 10.1433 18.3332 8.965 17.6007 8.2325C16.9607 7.5925 15.979 7.51167 14.1665 7.50167M5.83317 7.50167C4.02067 7.51167 3.039 7.5925 2.399 8.2325C1.6665 8.965 1.6665 10.1433 1.6665 12.5V13.3333C1.6665 15.6908 1.6665 16.8692 2.399 17.6017C2.649 17.8517 2.95067 18.0158 3.33317 18.1242" stroke="#313131" stroke-width="1.5" stroke-linecap="round"/>
<path d="M10 1.66667V12.5M10 12.5L7.5 9.58333M10 12.5L12.5 9.58333" stroke="#313131" stroke-width="1.5" stroke-linecap="round" stroke-linejoin="round"/>
</g>
<defs>
<clipPath id="clip0_82_63">
<rect width="20" height="20" fill="white"/>
</clipPath>
</defs>
</svg>
