<svg width="28" height="28" viewBox="0 0 28 28" fill="none" xmlns="http://www.w3.org/2000/svg">
<g clip-path="url(#clip0_90_1255)">
<path d="M14.0001 22.6122L6.94175 26.9009C6.73434 27.0039 6.54184 27.0456 6.36425 27.0261C6.18796 27.0052 6.0162 26.9439 5.84897 26.8422C5.68046 26.7378 5.55342 26.5904 5.46786 26.4C5.38231 26.2096 5.37453 26.0015 5.44453 25.7759L7.32286 17.7346L1.11036 12.315C0.935363 12.1715 0.819992 12 0.764252 11.8004C0.708511 11.6009 0.720826 11.4098 0.801196 11.2272C0.881567 11.0445 0.988511 10.8946 1.12203 10.7772C1.25684 10.6637 1.43833 10.5867 1.66647 10.5463L9.86425 9.82629L13.0609 2.21151C13.1491 1.99629 13.2761 1.84107 13.442 1.74585C13.608 1.65064 13.794 1.60303 14.0001 1.60303C14.2062 1.60303 14.3929 1.65064 14.5601 1.74585C14.7273 1.84107 14.8537 1.99629 14.9393 2.21151L18.1359 9.82629L26.3318 10.5463C26.5612 10.5854 26.7433 10.663 26.8781 10.7791C27.013 10.8939 27.1205 11.0432 27.2009 11.2272C27.28 11.4098 27.2917 11.6009 27.2359 11.8004C27.1802 12 27.0648 12.1715 26.8898 12.315L20.6773 17.7346L22.5556 25.7759C22.6282 25.9989 22.6211 26.2063 22.5343 26.398C22.4474 26.5898 22.3197 26.7372 22.1512 26.8402C21.9853 26.9446 21.8135 27.0065 21.6359 27.0261C21.4596 27.0456 21.2678 27.0039 21.0604 26.9009L14.0001 22.6122Z" fill="#415485"/>
</g>
<defs>
<clipPath id="clip0_90_1255">
<rect width="28" height="27" fill="white" transform="translate(0 0.5)"/>
</clipPath>
</defs>
</svg>
